<mxfile host="app.diagrams.net" modified="2021-12-10T16:46:20.101Z" agent="5.0 (Macintosh; Intel Mac OS X 10_15_7) AppleWebKit/537.36 (KHTML, like Gecko) Chrome/96.0.4664.55 Safari/537.36" etag="ru7ykSihgGcmGorY9H4z" version="15.8.6" type="github">
  <diagram id="6I0OCvxSQrVGMHxT2VVA" name="Page-1">
    <mxGraphModel dx="946" dy="452" grid="1" gridSize="10" guides="1" tooltips="1" connect="1" arrows="1" fold="1" page="1" pageScale="1" pageWidth="850" pageHeight="1100" math="0" shadow="0">
      <root>
        <mxCell id="0" />
        <mxCell id="1" parent="0" />
        <mxCell id="PdXEj4z8-R94ppj7jfaC-1" value="基于可视化的交互式文本聚类工具主界面" style="rounded=1;whiteSpace=wrap;html=1;fontSize=14;" vertex="1" parent="1">
          <mxGeometry x="260" y="370" width="300" height="40" as="geometry" />
        </mxCell>
        <mxCell id="PdXEj4z8-R94ppj7jfaC-2" value="文件上传" style="rounded=1;whiteSpace=wrap;html=1;fontSize=14;" vertex="1" parent="1">
          <mxGeometry x="150" y="450" width="100" height="40" as="geometry" />
        </mxCell>
        <mxCell id="PdXEj4z8-R94ppj7jfaC-3" value="分词&amp;amp;去停用词" style="rounded=1;whiteSpace=wrap;html=1;fontSize=13;" vertex="1" parent="1">
          <mxGeometry x="290" y="450" width="100" height="40" as="geometry" />
        </mxCell>
        <mxCell id="PdXEj4z8-R94ppj7jfaC-4" value="文本表示" style="rounded=1;whiteSpace=wrap;html=1;fontSize=14;" vertex="1" parent="1">
          <mxGeometry x="430" y="450" width="100" height="40" as="geometry" />
        </mxCell>
        <mxCell id="PdXEj4z8-R94ppj7jfaC-5" value="聚类分析" style="rounded=1;whiteSpace=wrap;html=1;fontSize=14;" vertex="1" parent="1">
          <mxGeometry x="570" y="450" width="100" height="40" as="geometry" />
        </mxCell>
        <mxCell id="PdXEj4z8-R94ppj7jfaC-6" value="文档读取" style="rounded=1;whiteSpace=wrap;html=1;fontSize=14;" vertex="1" parent="1">
          <mxGeometry x="155" y="530" width="70" height="40" as="geometry" />
        </mxCell>
        <mxCell id="PdXEj4z8-R94ppj7jfaC-7" value="分词" style="rounded=1;whiteSpace=wrap;html=1;fontSize=14;" vertex="1" parent="1">
          <mxGeometry x="265" y="530" width="70" height="40" as="geometry" />
        </mxCell>
        <mxCell id="PdXEj4z8-R94ppj7jfaC-8" value="去停用词" style="rounded=1;whiteSpace=wrap;html=1;fontSize=14;" vertex="1" parent="1">
          <mxGeometry x="375" y="530" width="70" height="40" as="geometry" />
        </mxCell>
        <mxCell id="PdXEj4z8-R94ppj7jfaC-9" value="聚类" style="rounded=1;whiteSpace=wrap;html=1;fontSize=14;" vertex="1" parent="1">
          <mxGeometry x="485" y="530" width="70" height="40" as="geometry" />
        </mxCell>
        <mxCell id="PdXEj4z8-R94ppj7jfaC-10" value="降维" style="rounded=1;whiteSpace=wrap;html=1;fontSize=14;" vertex="1" parent="1">
          <mxGeometry x="595" y="530" width="70" height="40" as="geometry" />
        </mxCell>
        <mxCell id="PdXEj4z8-R94ppj7jfaC-11" value="用户文档" style="rounded=1;whiteSpace=wrap;html=1;" vertex="1" parent="1">
          <mxGeometry x="210" y="610" width="70" height="40" as="geometry" />
        </mxCell>
        <mxCell id="PdXEj4z8-R94ppj7jfaC-12" value="分词结果" style="rounded=1;whiteSpace=wrap;html=1;" vertex="1" parent="1">
          <mxGeometry x="425" y="610" width="70" height="40" as="geometry" />
        </mxCell>
        <mxCell id="PdXEj4z8-R94ppj7jfaC-13" value="文本表示结果" style="rounded=1;whiteSpace=wrap;html=1;" vertex="1" parent="1">
          <mxGeometry x="530" y="610" width="80" height="40" as="geometry" />
        </mxCell>
        <mxCell id="PdXEj4z8-R94ppj7jfaC-14" value="用户文档简介" style="rounded=1;whiteSpace=wrap;html=1;" vertex="1" parent="1">
          <mxGeometry x="315" y="610" width="75" height="40" as="geometry" />
        </mxCell>
        <mxCell id="PdXEj4z8-R94ppj7jfaC-15" value="" style="endArrow=none;html=1;rounded=0;" edge="1" parent="1">
          <mxGeometry width="50" height="50" relative="1" as="geometry">
            <mxPoint x="140" y="430" as="sourcePoint" />
            <mxPoint x="680" y="430" as="targetPoint" />
          </mxGeometry>
        </mxCell>
        <mxCell id="PdXEj4z8-R94ppj7jfaC-17" value="" style="endArrow=none;html=1;rounded=0;" edge="1" parent="1">
          <mxGeometry width="50" height="50" relative="1" as="geometry">
            <mxPoint x="140" y="510" as="sourcePoint" />
            <mxPoint x="680" y="510" as="targetPoint" />
          </mxGeometry>
        </mxCell>
        <mxCell id="PdXEj4z8-R94ppj7jfaC-18" value="" style="endArrow=none;html=1;rounded=0;" edge="1" parent="1">
          <mxGeometry width="50" height="50" relative="1" as="geometry">
            <mxPoint x="140" y="590" as="sourcePoint" />
            <mxPoint x="680" y="590" as="targetPoint" />
          </mxGeometry>
        </mxCell>
        <mxCell id="PdXEj4z8-R94ppj7jfaC-19" value="展示层" style="text;html=1;align=center;verticalAlign=middle;resizable=0;points=[];autosize=1;strokeColor=none;fillColor=none;fontSize=14;" vertex="1" parent="1">
          <mxGeometry x="50" y="380" width="60" height="20" as="geometry" />
        </mxCell>
        <mxCell id="PdXEj4z8-R94ppj7jfaC-20" value="应用层" style="text;html=1;align=center;verticalAlign=middle;resizable=0;points=[];autosize=1;strokeColor=none;fillColor=none;fontSize=14;" vertex="1" parent="1">
          <mxGeometry x="50" y="460" width="60" height="20" as="geometry" />
        </mxCell>
        <mxCell id="PdXEj4z8-R94ppj7jfaC-21" value="数据处理层" style="text;html=1;align=center;verticalAlign=middle;resizable=0;points=[];autosize=1;strokeColor=none;fillColor=none;fontSize=14;" vertex="1" parent="1">
          <mxGeometry x="35" y="540" width="90" height="20" as="geometry" />
        </mxCell>
        <mxCell id="PdXEj4z8-R94ppj7jfaC-22" value="数据层" style="text;html=1;align=center;verticalAlign=middle;resizable=0;points=[];autosize=1;strokeColor=none;fillColor=none;fontSize=14;" vertex="1" parent="1">
          <mxGeometry x="50" y="620" width="60" height="20" as="geometry" />
        </mxCell>
      </root>
    </mxGraphModel>
  </diagram>
</mxfile>
